<svg xmlns="http://www.w3.org/2000/svg" version="1.1" xmlns:xlink="http://www.w3.org/1999/xlink" xmlns:svgjs="http://svgjs.dev/svgjs" width="1560" height="1080" preserveAspectRatio="none" viewBox="0 0 1560 1080"><g mask="url(&quot;#SvgjsMask1052&quot;)" fill="none"><rect width="1560" height="1080" x="0" y="0" fill="rgba(201, 226, 197, 1)"></rect><path d="M1690 1080L0 1080 L0 510.58Q104.29 484.87, 130 589.16Q145.53 526.69, 208 542.23Q203.73 459.96, 286 455.68Q360.13 399.81, 416 473.93Q518.42 446.35, 546 548.77Q664.06 536.83, 676 654.89Q729.14 578.03, 806 631.17Q811.14 506.31, 936 511.45Q965.57 463.02, 1014 492.59Q1070.85 471.44, 1092 528.29Q1122.93 429.23, 1222 460.16Q1275.93 384.1, 1352 438.03Q1411.05 419.07, 1430 478.12Q1520.96 439.08, 1560 530.04Q1643.49 483.53, 1690 567.02z" fill="rgba(219, 234, 215, 1)"></path><path d="M1612 1080L0 1080 L0 800.21Q36.43 758.64, 78 795.07Q94.45 733.52, 156 749.96Q187.16 651.13, 286 682.29Q365.06 631.35, 416 710.41Q486.53 702.94, 494 773.47Q574.43 723.9, 624 804.34Q632.43 682.77, 754 691.2Q745.13 604.33, 832 595.46Q907.9 593.36, 910 669.26Q1049.3 678.56, 1040 817.85Q975.23 675.08, 1118 610.31Q1233.36 647.67, 1196 763.03Q1174.38 663.41, 1274 641.79Q1326.35 564.13, 1404 616.48Q1496.37 578.85, 1534 671.22Q1585.32 644.54, 1612 695.86z" fill="rgba(231, 241, 228, 1)"></path><path d="M1638 1080L0 1080 L0 790.75Q54.37 767.12, 78 821.49Q212.46 825.95, 208 960.41Q174.86 797.27, 338 764.13Q455.88 804.01, 416 921.9Q415.71 791.61, 546 791.32Q567.49 734.81, 624 756.3Q671.54 725.84, 702 773.37Q748.77 742.14, 780 788.92Q837.8 768.72, 858 826.52Q903.84 794.36, 936 840.19Q1041.11 867.3, 1014 972.41Q1004.09 884.5, 1092 874.58Q1119.15 771.73, 1222 798.88Q1273.57 720.45, 1352 772.02Q1459.52 749.54, 1482 857.06Q1528.56 825.62, 1560 872.18Q1579.3 813.48, 1638 832.78z" fill="rgba(243, 248, 242, 1)"></path><path d="M1612 1080L0 1080 L0 1075.53Q79.89 1025.42, 130 1105.31Q161.95 1059.26, 208 1091.21Q252.07 1005.28, 338 1049.36Q337.93 919.29, 468 919.22Q601.48 974.7, 546 1108.17Q600.38 1084.55, 624 1138.93Q634.3 1019.23, 754 1029.53Q773.75 919.27, 884 939.02Q954.57 879.59, 1014 950.15Q1107.76 913.9, 1144 1007.66Q1268.67 1002.34, 1274 1127.01Q1321.01 1044.02, 1404 1091.03Q1451.49 1008.52, 1534 1056.01Q1551.85 995.86, 1612 1013.71z" fill="white"></path></g><defs><mask id="SvgjsMask1052"><rect width="1560" height="1080" fill="#ffffff"></rect></mask></defs></svg>