<svg xmlns="http://www.w3.org/2000/svg" version="1.1" xmlns:xlink="http://www.w3.org/1999/xlink" xmlns:svgjs="http://svgjs.dev/svgjs" width="1440" height="560" preserveAspectRatio="none" viewBox="0 0 1440 560"><g mask="url(&quot;#SvgjsMask1025&quot;)" fill="none"><path d="M721 155L983 417" stroke-width="8" stroke="url(&quot;#SvgjsLinearGradient1026&quot;)" stroke-linecap="round" class="BottomRight"></path><path d="M848 365L1189 706" stroke-width="6" stroke="url(&quot;#SvgjsLinearGradient1026&quot;)" stroke-linecap="round" class="BottomRight"></path><path d="M872 20L494 -358" stroke-width="6" stroke="url(&quot;#SvgjsLinearGradient1026&quot;)" stroke-linecap="round" class="BottomRight"></path><path d="M748 330L920 502" stroke-width="10" stroke="url(&quot;#SvgjsLinearGradient1026&quot;)" stroke-linecap="round" class="BottomRight"></path><path d="M64 76L-332 -320" stroke-width="6" stroke="url(&quot;#SvgjsLinearGradient1027&quot;)" stroke-linecap="round" class="TopLeft"></path><path d="M898 32L624 -242" stroke-width="10" stroke="url(&quot;#SvgjsLinearGradient1027&quot;)" stroke-linecap="round" class="TopLeft"></path><path d="M1107 320L740 -47" stroke-width="6" stroke="url(&quot;#SvgjsLinearGradient1026&quot;)" stroke-linecap="round" class="BottomRight"></path><path d="M479 36L76 -367" stroke-width="8" stroke="url(&quot;#SvgjsLinearGradient1026&quot;)" stroke-linecap="round" class="BottomRight"></path><path d="M543 80L387 -76" stroke-width="6" stroke="url(&quot;#SvgjsLinearGradient1027&quot;)" stroke-linecap="round" class="TopLeft"></path><path d="M82 149L262 329" stroke-width="6" stroke="url(&quot;#SvgjsLinearGradient1026&quot;)" stroke-linecap="round" class="BottomRight"></path><path d="M646 518L818 690" stroke-width="6" stroke="url(&quot;#SvgjsLinearGradient1027&quot;)" stroke-linecap="round" class="TopLeft"></path><path d="M135 147L-204 -192" stroke-width="6" stroke="url(&quot;#SvgjsLinearGradient1027&quot;)" stroke-linecap="round" class="TopLeft"></path><path d="M598 247L1000 649" stroke-width="6" stroke="url(&quot;#SvgjsLinearGradient1027&quot;)" stroke-linecap="round" class="TopLeft"></path><path d="M880 97L562 -221" stroke-width="6" stroke="url(&quot;#SvgjsLinearGradient1027&quot;)" stroke-linecap="round" class="TopLeft"></path><path d="M1394 20L1224 -150" stroke-width="10" stroke="url(&quot;#SvgjsLinearGradient1027&quot;)" stroke-linecap="round" class="TopLeft"></path><path d="M967 530L1379 942" stroke-width="8" stroke="url(&quot;#SvgjsLinearGradient1026&quot;)" stroke-linecap="round" class="BottomRight"></path><path d="M1258 69L1661 472" stroke-width="10" stroke="url(&quot;#SvgjsLinearGradient1027&quot;)" stroke-linecap="round" class="TopLeft"></path><path d="M1201 78L1560 437" stroke-width="10" stroke="url(&quot;#SvgjsLinearGradient1027&quot;)" stroke-linecap="round" class="TopLeft"></path><path d="M969 169L1199 399" stroke-width="6" stroke="url(&quot;#SvgjsLinearGradient1026&quot;)" stroke-linecap="round" class="BottomRight"></path><path d="M1255 533L1022 300" stroke-width="6" stroke="url(&quot;#SvgjsLinearGradient1027&quot;)" stroke-linecap="round" class="TopLeft"></path><path d="M438 210L257 29" stroke-width="10" stroke="url(&quot;#SvgjsLinearGradient1026&quot;)" stroke-linecap="round" class="BottomRight"></path><path d="M377 496L174 293" stroke-width="10" stroke="url(&quot;#SvgjsLinearGradient1026&quot;)" stroke-linecap="round" class="BottomRight"></path><path d="M45 327L411 693" stroke-width="8" stroke="url(&quot;#SvgjsLinearGradient1027&quot;)" stroke-linecap="round" class="TopLeft"></path><path d="M826 202L1033 409" stroke-width="10" stroke="url(&quot;#SvgjsLinearGradient1026&quot;)" stroke-linecap="round" class="BottomRight"></path><path d="M819 316L1060 557" stroke-width="6" stroke="url(&quot;#SvgjsLinearGradient1026&quot;)" stroke-linecap="round" class="BottomRight"></path><path d="M1190 364L1606 780" stroke-width="8" stroke="url(&quot;#SvgjsLinearGradient1027&quot;)" stroke-linecap="round" class="TopLeft"></path><path d="M57 533L-288 188" stroke-width="8" stroke="url(&quot;#SvgjsLinearGradient1027&quot;)" stroke-linecap="round" class="TopLeft"></path><path d="M339 194L-18 -163" stroke-width="6" stroke="url(&quot;#SvgjsLinearGradient1026&quot;)" stroke-linecap="round" class="BottomRight"></path><path d="M1420 15L1781 376" stroke-width="10" stroke="url(&quot;#SvgjsLinearGradient1026&quot;)" stroke-linecap="round" class="BottomRight"></path><path d="M1371 341L1142 112" stroke-width="10" stroke="url(&quot;#SvgjsLinearGradient1026&quot;)" stroke-linecap="round" class="BottomRight"></path><path d="M597 218L811 432" stroke-width="8" stroke="url(&quot;#SvgjsLinearGradient1026&quot;)" stroke-linecap="round" class="BottomRight"></path><path d="M1178 238L931 -9" stroke-width="6" stroke="url(&quot;#SvgjsLinearGradient1026&quot;)" stroke-linecap="round" class="BottomRight"></path><path d="M1217 220L943 -54" stroke-width="8" stroke="url(&quot;#SvgjsLinearGradient1026&quot;)" stroke-linecap="round" class="BottomRight"></path><path d="M250 490L1 241" stroke-width="10" stroke="url(&quot;#SvgjsLinearGradient1027&quot;)" stroke-linecap="round" class="TopLeft"></path><path d="M1203 55L1443 295" stroke-width="8" stroke="url(&quot;#SvgjsLinearGradient1026&quot;)" stroke-linecap="round" class="BottomRight"></path><path d="M840 188L616 -36" stroke-width="10" stroke="url(&quot;#SvgjsLinearGradient1027&quot;)" stroke-linecap="round" class="TopLeft"></path><path d="M1329 346L1510 527" stroke-width="8" stroke="url(&quot;#SvgjsLinearGradient1026&quot;)" stroke-linecap="round" class="BottomRight"></path><path d="M1294 69L1584 359" stroke-width="10" stroke="url(&quot;#SvgjsLinearGradient1026&quot;)" stroke-linecap="round" class="BottomRight"></path><path d="M508 341L902 735" stroke-width="6" stroke="url(&quot;#SvgjsLinearGradient1027&quot;)" stroke-linecap="round" class="TopLeft"></path></g><defs><mask id="SvgjsMask1025"><rect width="1440" height="560" fill="#ffffff"></rect></mask><linearGradient x1="0%" y1="0%" x2="100%" y2="100%" id="SvgjsLinearGradient1026"><stop stop-color="rgba(255, 255, 255, 0)" offset="0"></stop><stop stop-color="rgba(255, 255, 255, 1)" offset="1"></stop></linearGradient><linearGradient x1="100%" y1="100%" x2="0%" y2="0%" id="SvgjsLinearGradient1027"><stop stop-color="rgba(255, 255, 255, 0)" offset="0"></stop><stop stop-color="rgba(255, 255, 255, 1)" offset="1"></stop></linearGradient></defs></svg>